PathFileType	4	(X/Y/Z)	C:/Users/beibeiliu/ov580/test_trc\sequence.30_training_dense_right.trc
DataRate	CameraRate	NumFrames	NumMarkers	Units	OrigDataRate	OrigDataStartFrame	OrigNumFrames
120	120	21	19	mm	120	30	88
Frame#	Time	ThumbCMC			ThumbMCP			ThumbIP			ThumbTip			IndexMCP			IndexPIP			IndexTip			MiddleMCP			MiddlePIP			MiddleTip			RingMCP			RingPIP			RingTip			PinkyMCP			PinkyPIP			PinkyTip			BackHand1			BackHand2			BackHand3	
		X0	Y0	Z0	X1	Y1	Z1	X2	Y2	Z2	X3	Y3	Z3	X4	Y4	Z4	X5	Y5	Z5	X6	Y6	Z6	X7	Y7	Z7	X8	Y8	Z8	X9	Y9	Z9	X10	Y10	Z10	X11	Y11	Z11	X12	Y12	Z12	X13	Y13	Z13	X14	Y14	Z14	X15	Y15	Z15	X16	Y16	Z16	X17	Y17	Z17	X18	Y18	Z18	
29	0.241667	115.046	76.1951	13.7597	101.953	98.2884	5.49752	94.4562	116.227	-10.2271	90.1276	128.357	-21.4197	55.9634	78.7069	-27.4799	41.4724	86.631	-33.7519	21.5905	95.8628	-40.4116	41.8188	77.4342	-7.34602	29.7101	97.2293	7.72919	33.3173	117.666	30.5939	42.3248	68.1439	12.9812	51.7999	87.7225	32.1692	78.4058	80.2125	36.2723	43.4863	57.4251	25.0884	56.3147	74.7167	40.394	79.3692	67.6049	39.5635	78.3805	36.0195	7.58571	102.447	26.445	23.5249	107.349	51.5894	2.04112	
30	0.25	107.573	72.8752	10.3228	100.169	95.025	-0.881389	96.2507	109.772	-14.0543	95.8414	121.588	-25.3438	59.0601	80.6098	-34.9407	39.3779	89.7625	-41.7789	25.3772	100.124	-52.1899	40.0074	84.2991	-14.2487	30.4611	109.899	-3.73689	35.539	128.343	18.1826	34.934	80.9723	6.50595	48.5921	98.8035	22.2397	71.3322	81.5086	33.0016	34.9117	71.5647	19.0398	50.0954	86.4964	29.9785	70.0576	74.5499	32.633	63.5621	39.0494	10.5526	83.4095	30.3273	26.2192	94.6588	45.7688	4.00201	
31	0.258333	100.236	67.8192	10.6193	95.0114	90.4762	-7.97445	95.0947	102.035	-22.7505	99.9427	113.62	-37.0015	56.1762	70.2625	-38.4074	41.9461	82.9244	-54.7229	27.1036	93.0773	-67.3338	36.3535	83.5958	-25.5493	30.0324	109.626	-20.9092	38.1518	136.073	-4.58243	32.6489	86.3883	-4.52268	45.8557	102.557	12.1513	65.7561	89.1851	21.8555	26.1747	78.1854	11.4855	42.678	93.3617	19.3576	62.9806	78.1368	23.5975	53.098	42.1201	9.04085	71.9975	30.9603	29.7854	80.8533	41.5444	7.3431	
32	0.266667	99.5929	66.6625	11.9006	95.335	85.4349	-12.8091	98.3007	93.764	-32.0707	102.871	101.031	-45.3595	60.1242	59.6111	-43.2626	49.9533	70.4806	-66.0057	39.959	77.5981	-79.5224	41.4024	73.9146	-34.822	37.441	103.578	-41.6316	37.2314	130.833	-29.7301	32.5523	82.5797	-16.2842	45.6459	103.328	-4.55429	61.2298	89.041	15.97	24.4694	78.6847	-1.90446	37.8562	97.7818	9.03393	57.8159	79.485	17.4992	45.7617	41.3666	10.7206	57.8274	37.6359	33.7887	74.0503	40.4397	7.8117	
33	0.275	97.4574	70.3297	12.4768	98.5162	83.978	-10.3064	102.802	88.2199	-31.5482	111.94	90.518	-48.0871	69.555	50.7807	-48.5024	61.1863	54.8627	-65.9419	49.9113	58.6248	-84.2617	46.0532	65.434	-39.2339	43.6358	90.4243	-55.4319	44.0409	118.123	-55.2804	36.219	81.376	-26.2759	47.3074	102.241	-15.8841	58.8638	94.7296	6.85192	27.1849	80.0655	-12.9069	40.1034	99.004	-4.8937	58.2846	85.9655	14.74	48.1576	42.738	10.3255	58.3026	44.5163	33.0981	80.3422	44.5674	14.078	
34	0.283333	99.3271	73.2314	11.4098	103.921	81.3778	-15.0813	105.759	81.6351	-31.9936	119.37	82.9456	-49.2117	75.1488	43.2742	-41.8518	72.5761	41.0859	-67.1567	64.844	39.9834	-83.2444	58.7819	57.7582	-46.2486	52.457	76.008	-61.5966	49.1223	106.484	-68.5823	45.1324	71.6737	-31.6753	50.7891	95.5856	-26.2868	66.7291	92.4115	0.388478	33.3848	74.2159	-18.7426	43.8933	95.133	-13.3878	61.1212	88.3916	4.77878	52.3095	46.9208	13.4111	62.4604	52.5681	37.8407	83.3422	47.4728	15.4713	
35	0.291667	104.267	78.0503	14.2869	108.52	78.4676	-17.1804	115.197	77.3732	-35.012	120.596	74.538	-50.5234	89.2663	33.5814	-40.333	80.8284	30.4471	-56.7716	79.0788	22.9924	-77.1924	65.1098	46.8509	-45.1558	58.5603	62.2895	-64.2382	50.6959	86.8099	-75.6448	49.0554	61.2502	-31.0114	58.9679	88.8175	-30.6388	67.774	91.0182	-2.43825	40.0441	65.9867	-22.9429	47.6376	85.1252	-21.7807	63.5058	85.466	0.3772	63.8041	43.2509	15.2594	68.4954	56.2123	41.7041	88.4432	49.0279	21.0039	
36	0.3	107.94	77.9937	11.3036	109.521	80.3199	-14.4616	118.96	73.0915	-38.1695	126.103	73.6925	-51.3857	97.2575	28.0103	-32.1438	96.8407	20.2549	-51.2993	90.004	10.6333	-68.391	77.8743	37.1406	-41.2524	66.8042	47.6299	-60.7449	58.5321	71.0015	-79.6711	58.3564	49.7653	-29.3986	60.5834	78.8472	-30.8491	71.3192	84.7291	-6.38705	44.1576	51.8446	-17.5273	52.028	78.8969	-20.0144	67.2256	81.6879	-4.67449	72.0133	41.6915	17.9296	76.7502	53.0541	39.4061	97.4839	52.6036	25.7311	
37	0.308333	108.956	82.079	14.8467	113.366	83.3152	-14.2363	122.778	77.1984	-38.2888	129.107	77.7876	-52.3782	114.113	28.5518	-27.7511	112.938	16.7926	-45.4145	116.9	5.66581	-66.0192	90.6091	27.8761	-37.0067	77.4036	35.09	-58.9128	63.6737	55.1244	-76.5053	70.0412	37.0162	-27.6851	66.2355	67.0305	-31.0733	75.6041	77.4498	-9.92002	54.7333	39.3167	-17.1203	58.2141	64.9089	-19.8148	74.8282	71.3691	-1.58043	84.2633	34.4365	22.5997	83.3166	46.5899	42.7925	107.554	49.5738	23.6614	
38	0.316667	112.894	83.0123	17.0181	115.195	85.0402	-12.1619	124.933	83.3949	-35.5595	128.804	87.8231	-48.7025	135.888	32.868	-30.0127	140.949	24.6821	-47.7897	144.461	13.9203	-67.0202	110.825	25.3714	-34.9931	102.159	31.5962	-59.3891	83.8999	46.8356	-79.384	90.2686	31.8104	-31.2015	76.3638	52.5161	-33.9013	82.0318	69.1574	-10.6291	76.5546	25.6037	-17.0268	68.357	47.8814	-21.3061	81.0943	62.0705	-3.94708	102.153	30.2768	21.0281	99.5967	42.1081	41.7959	120.59	49.8692	26.6481	
39	0.325	114.35	87.7105	17.1703	117.235	87.2033	-13.6658	123.763	88.578	-33.5568	125.733	97.3622	-46.8718	152.979	54.4565	-25.6303	162.426	48.4346	-45.2688	171.722	41.2152	-65.687	135.979	37.7728	-39.4908	122.15	37.9528	-63.1502	101.272	44.4433	-81.0249	110.234	30.2023	-33.6057	92.1563	49.1968	-34.9445	90.0495	62.5652	-9.6608	103.365	23.1923	-21.8566	85.9461	41.8628	-22.6959	92.0047	55.4817	-0.87657	122.762	28.3616	18.7207	111.972	38.0553	42.8845	133.37	57.4639	26.6174	
40	0.333333	113.946	88.0127	16.2612	112.122	90.5167	-11.1673	117.047	98.1442	-31.6417	120.414	106.508	-45.6402	161.162	75.4582	-26.5724	169.581	71.0433	-46.1667	182.705	69.6404	-67.8343	149.745	50.4007	-38.5149	139.707	52.0245	-61.1147	118.477	50.8121	-83.2767	130.93	35.984	-32.0141	105.589	47.7581	-36.6553	95.4721	55.6349	-12.4698	122.54	23.6192	-24.5274	100.9	37.6221	-23.6511	100.067	50.5505	-2.10712	141.795	39.8857	15.558	129.985	41.4698	40.8608	137.859	64.4174	25.9866	
41	0.341667	109.079	87.7629	17.7104	103.105	93.9681	-8.71579	109.11	102.605	-30.818	105.194	115.458	-44.8618	155.979	100.746	-27.4136	164.817	101.363	-47.4121	173.856	106.764	-64.7399	154.167	75.4989	-43.0649	144.727	68.8159	-64.598	125.303	61.0428	-85.4256	141.425	52.2468	-37.6262	116.72	53.7111	-39.5992	105.831	55.3292	-9.88476	142.112	36.532	-26.3588	115.46	45.1865	-25.1054	110.616	50.6199	-4.07231	153.804	55.157	15.5992	141.373	51.8089	34.8933	138.682	80.3049	26.1945	
42	0.35	105.908	88.7246	17.5374	96.8011	92.9651	-7.63924	94.0594	106.62	-29.237	85.8434	118.025	-41.4683	145.28	118.022	-29.7796	149.629	123.29	-45.8279	156.076	132.799	-64.5252	150.611	94.738	-44.1047	143.51	89.5839	-64.0352	126.208	78.3632	-86.047	144.293	73.8076	-37.7966	119.866	61.84	-39.4132	110.218	62.1481	-14.9943	151.177	54.6463	-30.5561	126.178	49.8815	-29.9651	118.213	57.1683	-4.20342	157.252	74.5541	12.927	149.208	65.1369	32.5517	136.613	92.6425	22.6959	
43	0.358333	97.0685	88.8452	17.4612	90.1736	90.755	-8.12469	81.6891	101.121	-26.2978	72.1797	108.887	-38.1498	126.84	127.134	-26.0742	127.68	141.13	-49.1322	130.287	149.064	-65.1118	137.199	110.132	-40.251	127.813	105.085	-66.7169	117.004	89.7081	-85.6282	141.142	87.8181	-39.6995	117.959	68.5598	-39.1762	114.98	62.7674	-14.324	150.573	71.0105	-35.4297	127.834	61.9331	-31.4176	122.113	63.7756	-6.64647	152.22	90.7446	10.4216	148.633	79.8582	31.0236	130.435	97.2212	24.0024	
44	0.366667	92.2283	86.6359	13.525	79.7399	84.3411	-7.83736	67.6354	90.5432	-26.1	53.9045	94.9014	-38.431	99.735	133.685	-33.0962	96.7034	140.588	-50.4054	99.6715	149.494	-72.6735	115.02	117.139	-46.8286	111.316	105.896	-71.1141	102.005	85.7754	-88.1567	126.285	93.6395	-45.4134	111.502	70.904	-40.4868	112.251	67.7227	-14.8228	138.747	86.8361	-36.5911	124.21	67.3226	-31.4669	117.486	73.4152	-9.36191	140.479	108.112	3.20483	140.509	90.4365	28.8828	114.832	104.968	21.5713	
45	0.375	80.7633	83.0727	12.4801	66.9452	75.1727	-10.7091	52.292	74.4449	-27.6263	38.3855	71.8868	-38.9224	76.7605	121.807	-37.7892	67.8573	125.104	-60.3448	65.0022	130.202	-84.9896	92.0726	112.474	-52.3085	89.4541	97.5509	-73.6937	91.9424	67.6042	-84.6939	110.338	96.3793	-45.9885	104.901	68.1432	-40.355	104.829	69.0905	-13.4055	127.919	89.0464	-42.5947	117.14	71.4821	-35.2611	113.866	73.0627	-7.53314	118.327	114.609	-1.57669	128.237	105.926	25.0352	93.6619	110.387	14.1495	
46	0.383333	65.6556	77.7518	12.0912	60.3492	62.604	-7.76144	46.7056	51.4639	-26.9597	40.0226	44.3979	-34.0921	54.7134	97.6161	-48.685	54.2998	94.0767	-70.9836	51.6414	90.7697	-96.326	78.2942	94.4896	-58.3621	82.1953	69.9886	-74.8032	93.6051	42.8736	-67.3979	97.8123	86.248	-49.0686	100.321	60.2424	-36.0591	97.6323	69.1047	-10.1455	118.082	85.0377	-44.1184	113.427	66.6299	-25.9927	102.3	76.8964	-8.41829	100.873	117.26	-14.5599	104.938	118.257	13.3336	77.089	110.355	5.49051	
47	0.391667	60.788	79.9856	13.4171	53.6633	54.7201	-2.26813	45.3787	39.8858	-15.7075	39.634	29.2685	-27.8587	51.0001	79.384	-51.9801	55.2668	70.3028	-75.1092	51.3797	58.4972	-92.8517	79.3842	76.3341	-60.9127	88.1882	46.4738	-63.2482	95.3148	30.106	-37.5068	97.1498	75.0033	-47.2087	102.595	53.5577	-26.2481	93.723	66.6198	-5.99091	112.954	78.5038	-39.8131	107.173	62.7686	-23.0591	95.6509	74.6816	-4.84714	90.8602	115.546	-18.4226	90.1287	120.697	10.1637	65.764	108.209	1.46977	
48	0.4	55.6717	79.4409	11.8319	51.6806	53.8543	3.47615	44.113	35.2543	-10.5041	38.6007	23.8557	-14.2034	57.2423	65.821	-58.1999	55.7927	52.8353	-69.9329	61.6753	38.3522	-86.7691	84.1669	59.9266	-55.7523	90.0818	32.922	-46.8418	92.0403	32.3788	-14.084	98.1585	60.6958	-42.7116	101.323	44.9751	-21.4402	92.3541	67.2188	0.579774	115.365	69.6226	-34.4784	112.053	55.52	-13.2651	94.8564	70.4754	-1.63872	92.8581	108.185	-21.2073	91.2239	119.871	0.37959	64.9715	106.141	-6.40716	
49	0.408333	60.8616	81.1967	8.59803	51.9752	53.093	1.75886	42.579	37.5414	-1.78927	33.1262	23.7972	-8.04604	64.1698	57.4093	-51.9471	64.2709	36.0347	-67.8158	65.5965	17.4359	-79.9658	84.1339	48.6304	-46.8274	92.7164	21.7745	-27.9726	88.0298	33.446	-1.41593	105.287	45.9972	-34.1951	97.6558	34.2775	-12.0067	91.6744	59.13	6.31077	116.694	55.0557	-28.3481	111.198	44.8454	-5.40258	96.2358	61.9282	3.80376	101.975	96.6266	-24.7882	98.9732	110.918	-2.28289	74.203	103.77	-11.0728	
